<svg viewBox="0 0 27 26" fill="none" xmlns="http://www.w3.org/2000/svg">
<path d="M18.6667 12C19.0444 12 19.3611 11.8722 19.6167 11.6167C19.8722 11.3611 20 11.0444 20 10.6667C20 10.2889 19.8722 9.97222 19.6167 9.71667C19.3611 9.46111 19.0444 9.33333 18.6667 9.33333C18.2889 9.33333 17.9722 9.46111 17.7167 9.71667C17.4611 9.97222 17.3333 10.2889 17.3333 10.6667C17.3333 11.0444 17.4611 11.3611 17.7167 11.6167C17.9722 11.8722 18.2889 12 18.6667 12V12M8 9.33333H14.6667V6.66667H8V9.33333V9.33333M3.33333 25.3333C2.57778 22.8 1.83333 20.2722 1.1 17.75C0.366667 15.2278 0 12.6444 0 10C0 7.95556 0.711111 6.22222 2.13333 4.8C3.55556 3.37778 5.28889 2.66667 7.33333 2.66667H14C14.6444 1.82222 15.4278 1.16667 16.35 0.7C17.2722 0.233333 18.2667 0 19.3333 0C19.8889 0 20.3611 0.194444 20.75 0.583333C21.1389 0.972222 21.3333 1.44444 21.3333 2C21.3333 2.13333 21.3167 2.26667 21.2833 2.4C21.25 2.53333 21.2111 2.65556 21.1667 2.76667C21.0778 3.01111 20.9944 3.26111 20.9167 3.51667C20.8389 3.77222 20.7778 4.03333 20.7333 4.3L23.7667 7.33333H26.6667V16.6333L22.9 17.8667L20.6667 25.3333H13.3333V22.6667H10.6667V25.3333H3.33333V25.3333M5.33333 22.6667H8V20H16V22.6667H18.6667L20.7333 15.8L24 14.7V10H22.6667L18 5.33333C18 4.88889 18.0278 4.46111 18.0833 4.05C18.1389 3.63889 18.2222 3.22222 18.3333 2.8C17.6889 2.97778 17.1222 3.28333 16.6333 3.71667C16.1444 4.15 15.7889 4.68889 15.5667 5.33333H7.33333C6.04444 5.33333 4.94444 5.78889 4.03333 6.7C3.12222 7.61111 2.66667 8.71111 2.66667 10C2.66667 12.1778 2.96667 14.3056 3.56667 16.3833C4.16667 18.4611 4.75556 20.5556 5.33333 22.6667V22.6667M13.3333 12.7333V12.7333Z" fill="#FF4D8B"/>
</svg>
