<svg width="48" height="48" viewBox="0 0 48 48" fill="none" xmlns="http://www.w3.org/2000/svg">
<path d="M16.8 4.79999C15.4725 4.79999 14.4 5.87249 14.4 7.19999V9.59999H12C9.35245 9.59999 7.19995 11.7525 7.19995 14.4V18H40.8V14.4C40.8 11.7525 38.6475 9.59999 36 9.59999H33.6V7.19999C33.6 5.87249 32.5275 4.79999 31.2 4.79999C29.8725 4.79999 28.8 5.87249 28.8 7.19999V9.59999H19.2V7.19999C19.2 5.87249 18.1275 4.79999 16.8 4.79999ZM7.19995 21.6V36C7.19995 38.6475 9.35245 40.8 12 40.8H36C38.6475 40.8 40.8 38.6475 40.8 36V21.6H7.19995Z" fill="#FF4D8B"/>
</svg>
