<svg width="48" height="48" viewBox="0 0 48 48" fill="none" xmlns="http://www.w3.org/2000/svg">
<path d="M18.51 5.72099C20.0837 4.50951 22.014 3.8526 24 3.8526C25.986 3.8526 27.9163 4.50951 29.49 5.72099L39.99 13.8C41.0823 14.6409 41.9669 15.7215 42.5755 16.9584C43.1841 18.1953 43.5004 19.5555 43.5 20.934V34.5C43.5 36.8869 42.5518 39.1761 40.864 40.8639C39.1761 42.5518 36.8869 43.5 34.5 43.5H13.5C11.1131 43.5 8.82387 42.5518 7.13604 40.8639C5.44821 39.1761 4.5 36.8869 4.5 34.5V20.934C4.49963 19.5555 4.81594 18.1953 5.42451 16.9584C6.03309 15.7215 6.91766 14.6409 8.01 13.8L18.51 5.72099ZM21 24C18.93 24 17.25 25.68 17.25 27.75V39H30.75V27.75C30.75 25.68 29.07 24 27 24H21Z" fill="#FF4D8B"/>
</svg>
