<svg width="48" height="48" viewBox="0 0 48 48" fill="none" xmlns="http://www.w3.org/2000/svg">
<path d="M11.1429 6C8.30625 6 6 8.30625 6 11.1429V36.8571C6 39.6937 8.30625 42 11.1429 42H36.8571C39.6937 42 42 39.6937 42 36.8571V11.1429C42 8.30625 39.6937 6 36.8571 6H11.1429ZM16.2857 12.4286C18.4152 12.4286 20.1429 14.1562 20.1429 16.2857C20.1429 18.4152 18.4152 20.1429 16.2857 20.1429C14.1562 20.1429 12.4286 18.4152 12.4286 16.2857C12.4286 14.1562 14.1562 12.4286 16.2857 12.4286ZM27.8571 21.4286C28.5321 21.4286 29.1509 21.7821 29.5045 22.3527L36.5759 33.9241C36.9375 34.5187 36.9536 35.2661 36.6161 35.8768C36.2786 36.4875 35.6277 36.8571 34.9286 36.8571H13.0714C12.3562 36.8571 11.6893 36.4554 11.3598 35.8205C11.0304 35.1857 11.0786 34.4143 11.4884 33.8277L15.9884 27.3991C16.35 26.8848 16.9366 26.5795 17.5714 26.5795C18.2062 26.5795 18.7929 26.8848 19.1545 27.3991L21.2759 30.4366L26.2098 22.3607C26.5634 21.7902 27.1821 21.4366 27.8571 21.4366V21.4286Z" fill="#FF4D8B"/>
</svg>
