<svg width="48" height="48" viewBox="0 0 48 48" fill="none" xmlns="http://www.w3.org/2000/svg">
<path d="M36.6462 15.9588V13.9169L40.9366 10.2209C41.4018 9.84185 41.7034 9.53169 41.8412 9.29046C41.9791 9.032 42.048 8.79938 42.048 8.59262C42.048 8.31692 41.9274 8.08431 41.6862 7.89477C41.4622 7.70523 41.0917 7.61046 40.5748 7.61046C40.1268 7.61046 39.7218 7.70523 39.36 7.89477C38.9982 8.06708 38.7138 8.32554 38.5071 8.67015L36 7.32615C36.3963 6.63692 36.9994 6.07692 37.8092 5.64615C38.6191 5.21538 39.6443 5 40.8849 5C42.2978 5 43.4178 5.31015 44.2449 5.93046C45.0892 6.53354 45.5114 7.33477 45.5114 8.33415C45.5114 8.85108 45.3735 9.35939 45.0978 9.85908C44.8394 10.3588 44.288 10.9791 43.4437 11.72L40.1612 14.5372L39.5668 13.4H45.8732V15.9588H36.6462Z" fill="#FF4D8B"/>
<path d="M3 41V16.4083H9.84865V23.2595L8.48649 21.3085C9.24324 19.5541 10.2775 18.2384 11.5892 17.3612C12.9009 16.4537 14.364 16 15.9784 16C17.8198 16 19.4342 16.5747 20.8216 17.7241C22.2342 18.8433 23.1802 20.5977 23.6595 22.9873L21.3135 22.3975C22.045 20.4011 23.1423 18.8433 24.6054 17.7241C26.0937 16.5747 27.7964 16 29.7135 16C31.3027 16 32.7153 16.3932 33.9514 17.1797C35.2126 17.9359 36.1964 19.1155 36.9027 20.7187C37.6342 22.3218 38 24.3938 38 26.9347V41H30.8108V28.3412C30.8108 26.5868 30.5333 25.3164 29.9784 24.5299C29.4234 23.7132 28.6667 23.3049 27.7081 23.3049C27.027 23.3049 26.409 23.5015 25.8541 23.8947C25.2991 24.288 24.8703 24.8929 24.5676 25.7096C24.2649 26.4961 24.1135 27.5245 24.1135 28.7949V41H16.9243V28.3412C16.9243 26.5868 16.6468 25.3164 16.0919 24.5299C15.5622 23.7132 14.8054 23.3049 13.8216 23.3049C13.1153 23.3049 12.4847 23.5015 11.9297 23.8947C11.4 24.288 10.9712 24.8929 10.6432 25.7096C10.3405 26.4961 10.1892 27.5245 10.1892 28.7949V41H3Z" fill="#FF4D8B"/>
</svg>
