<svg width="48" height="48" viewBox="0 0 48 48" fill="none" xmlns="http://www.w3.org/2000/svg">
<path d="M43 17.5V19.5C43 20.73 42.11 21.74 40.95 21.95C40.41 15.27 34.82 9.99999 28 9.99999H18.62L15.27 6.64999C14.922 6.29927 14.4772 6.0605 13.9925 5.96428C13.5079 5.86807 13.0056 5.91881 12.55 6.10999C11.61 6.49999 11.01 7.39999 11.01 8.41999V12.07C8.32257 13.7898 6.36144 16.4379 5.50001 19.51H4.51001C3.13001 19.51 2.01001 20.63 2.01001 22.01V27.01C2.01001 28.39 3.13001 29.51 4.51001 29.51H6.77001C8.00739 31.6447 9.8242 33.3852 12.01 34.53V41.01H16.51C17.89 41.01 19.01 39.89 19.01 38.51V36.01H27.01V41.01H31.51C32.89 41.01 34.01 39.89 34.01 38.51V34.53C35.8146 33.584 37.3725 32.2283 38.5586 30.5715C39.7447 28.9148 40.526 27.0032 40.84 24.99C42.2373 24.906 43.55 24.2924 44.5106 23.2742C45.4712 22.256 46.0074 20.9098 46.01 19.51V17.51H43.01L43 17.5ZM28 17H19V14H28V17Z" fill="#FF4D8B"/>
</svg>
