<svg width="48" height="48" viewBox="0 0 48 48" fill="none" xmlns="http://www.w3.org/2000/svg">
<path d="M31.4492 31.8667C31.8151 31.5823 32.1475 31.2499 32.8103 30.5871L41.0833 22.3117C41.284 22.113 41.192 21.7681 40.9265 21.674C39.6309 21.2249 38.4552 20.4854 37.4893 19.5121C36.516 18.5462 35.7766 17.3704 35.3275 16.0748C35.2334 15.8092 34.8885 15.7172 34.6899 15.918L26.4127 24.1913C25.7499 24.8541 25.4175 25.1865 25.1332 25.5524C24.7945 25.9859 24.5074 26.4501 24.2718 26.9449C24.0732 27.3631 23.9247 27.8105 23.6279 28.7012L23.2432 29.8511L22.6327 31.6806L22.0619 33.3951C21.9908 33.6099 21.9807 33.8404 22.0329 34.0606C22.0851 34.2809 22.1976 34.4823 22.3576 34.6424C22.5177 34.8024 22.7191 34.9149 22.9393 34.9671C23.1596 35.0193 23.39 35.0092 23.6049 34.9381L25.3193 34.3673L27.1486 33.7568L28.2985 33.3721C29.1892 33.0752 29.6366 32.9288 30.0547 32.7281C30.5495 32.4911 31.0158 32.204 31.4492 31.8667ZM43.6758 19.7211C44.5239 18.8727 45.0002 17.7221 45 16.5225C44.9998 15.3229 44.5231 14.1724 43.6747 13.3243C42.8263 12.4762 41.6758 11.9998 40.4762 12C39.2766 12.0002 38.1263 12.4769 37.2782 13.3254L37.0147 13.593C36.8876 13.7174 36.7928 13.871 36.7389 14.0405C36.6849 14.21 36.6734 14.3902 36.7053 14.5652C36.7471 14.7889 36.8203 15.1193 36.9562 15.5103C37.228 16.2943 37.7423 17.323 38.7103 18.291C39.6783 19.2591 40.7069 19.7734 41.491 20.0452C41.884 20.1811 42.2123 20.2543 42.436 20.2961C42.6109 20.3262 42.7906 20.3138 42.9598 20.2599C43.129 20.2061 43.2827 20.1124 43.4081 19.9867L43.6758 19.7211Z" fill="#FF4D8B"/>
<path fill-rule="evenodd" clip-rule="evenodd" d="M8.08356 8.1096C6 10.2174 6 13.6122 6 20.4V27.6C6 34.3878 6 37.7826 8.08356 39.8904C10.1671 41.9982 13.5182 42 20.2222 42H23.7778C30.4818 42 33.8347 42 35.9164 39.8904C37.9662 37.8168 38 34.4976 38 27.924L32.9902 32.9964C32.5102 33.4824 32.1173 33.8802 31.6747 34.2312C31.1554 34.643 30.5926 34.9949 29.9964 35.2806C29.4509 35.5291 28.8903 35.7425 28.3182 35.9196L24.208 37.3074C23.5555 37.5277 22.8553 37.5597 22.1859 37.3997C21.5165 37.2398 20.9043 36.8942 20.418 36.4018C19.9316 35.9094 19.5903 35.2895 19.4324 34.6117C19.2744 33.934 19.306 33.225 19.5236 32.5644L20.0107 31.0884L20.8551 28.5216L20.8924 28.4028C21.1076 27.7512 21.2836 27.2184 21.5253 26.7036C21.8098 26.0988 22.1553 25.533 22.5618 25.0062C22.9084 24.5562 23.3013 24.1602 23.7813 23.6742L30.9031 16.4616L32.88 14.46L33.1058 14.2314C33.7099 13.6179 34.4279 13.1314 35.2184 12.7999C36.4629 12.2781 37.6005 11.0692 37.0651 9.83038C36.7788 9.16788 36.4047 8.60313 35.9164 8.1096C33.8347 6 30.4818 6 23.7778 6H20.2222C13.5182 6 10.1653 6 8.08356 8.1096ZM13.5556 18.6C13.5556 18.242 13.696 17.8986 13.9461 17.6454C14.1961 17.3922 14.5353 17.25 14.8889 17.25H26.4444C26.7981 17.25 27.1372 17.3922 27.3873 17.6454C27.6373 17.8986 27.7778 18.242 27.7778 18.6C27.7778 18.958 27.6373 19.3014 27.3873 19.5546C27.1372 19.8078 26.7981 19.95 26.4444 19.95H14.8889C14.5353 19.95 14.1961 19.8078 13.9461 19.5546C13.696 19.3014 13.5556 18.958 13.5556 18.6ZM13.5556 25.8C13.5556 25.442 13.696 25.0986 13.9461 24.8454C14.1961 24.5922 14.5353 24.45 14.8889 24.45H19.3333C19.687 24.45 20.0261 24.5922 20.2761 24.8454C20.5262 25.0986 20.6667 25.442 20.6667 25.8C20.6667 26.158 20.5262 26.5014 20.2761 26.7546C20.0261 27.0078 19.687 27.15 19.3333 27.15H14.8889C14.5353 27.15 14.1961 27.0078 13.9461 26.7546C13.696 26.5014 13.5556 26.158 13.5556 25.8ZM13.5556 33C13.5556 32.642 13.696 32.2986 13.9461 32.0454C14.1961 31.7922 14.5353 31.65 14.8889 31.65H17.5556C17.9092 31.65 18.2483 31.7922 18.4984 32.0454C18.7484 32.2986 18.8889 32.642 18.8889 33C18.8889 33.358 18.7484 33.7014 18.4984 33.9546C18.2483 34.2078 17.9092 34.35 17.5556 34.35H14.8889C14.5353 34.35 14.1961 34.2078 13.9461 33.9546C13.696 33.7014 13.5556 33.358 13.5556 33Z" fill="#FF4D8B"/>
</svg>
